<?xml version="1.0" encoding="UTF-8"?>
<svg id="Layer_1" data-name="Layer 1" xmlns="http://www.w3.org/2000/svg" viewBox="0 0 199.09 189">
  <defs>
    <style>
      .cls-1 {
        fill: #696969;
      }

      .cls-1, .cls-2, .cls-3, .cls-4 {
        fill-rule: evenodd;
        stroke-width: 0px;
      }

      .cls-2 {
        fill: #4a4a4a;
      }

      .cls-3 {
        fill: #fff;
      }

      .cls-4 {
        fill: #979797;
      }
    </style>
  </defs>
  <path class="cls-3" d="m8,0c4.5,16.4,12.7,30.7,24.5,43,.3,8.9,1.7,17.6,4,26-10.1-7.8-18.5-17.1-25-28C5.8,27.7,4.6,14,8,0Z"/>
  <path class="cls-3" d="m191,0c5.9,19.4,2.4,37-10.5,53-5.4,6.4-11.6,11.6-18.5,15.5,4.1-8,6-16.5,5.5-25.5,11.9-12.1,19.7-26.4,23.5-43Z"/>
  <path class="cls-3" d="m159,136c-5-.2-10,0-15,.5.5.7,1.2,1.2,2,1.5,2.6,1,5.3,2,8,3-2.2,2.4-4.9,4.2-8,5.5-7.4,1.5-14.7,2-22,1.5,2.4,3,3.4,6.5,3,10.5.5,5.2-1,9.7-4.5,13.5-.6-4.7-2.4-8.7-5.5-12-.5-1.6-1.5-2.1-3-1.5.9,2.4,1.3,4.9,1,7.5-5.2,7.4-10.2,15.1-15,23-4.6-7.1-9.5-14.1-14.5-21-.7-3.1-.6-6.1.5-9-.5-1-1.2-1.2-2-.5-3.3,3.9-5.5,8.4-6.5,13.5-3.5-3.8-5-8.3-4.5-13.5-.4-4,.6-7.5,3-10.5-7.7.4-15.3-.1-23-1.5-9.7-4.7-9-7.5,2-8.5.5-.1.9-.4,1-1-2.5-1.3-4.8-1.3-7,0-10,.6-18.2-3.1-24.5-11-1.7-2.8-2.4-5.8-2-9,4.6,3.7,9.8,6.6,15.5,8.5,8,1.8,16,3.1,24,4-12.5-8-20.5-19.1-24-33.5.2-.3.3-.7.5-1,3.8,4.8,8.3,7.8,13.5,9-5.9-12.7-7.7-26.1-5.5-40-.7-4-2.2-7.7-4.5-11,11.2,2.7,17.3,10,18.5,22,5.4-8.2,4.2-15.3-3.5-21.5-10.9-6.9-20.7-15-29.5-24.5-5.6-8.2-8.3-17.2-8-27,3.5,9.2,9,17,16.5,23.5,12.8,8.8,25.7,17.7,38.5,26.5,1.5,2.9,1.8,5.9,1,9-2.1,6.3-4.8,12.3-8,18-3.3,13.2-1.3,25.5,6,37,6.3,9.3,12.7,18.7,19,28,2.8,5.2,5.3,10.6,7.5,16,2.2-5.4,4.7-10.8,7.5-16,6.7-10,13.3-20,20-30,5.6-10,7.6-20.6,6-32-2.7-7.1-5.7-14.1-9-21-.7-2.3-.7-4.7,0-7,2.8-3.2,6-6,9.5-8.5,10.9-6.3,21.2-13.3,31-21,6.8-6.4,12-13.9,15.5-22.5.4,10.4-2.6,19.8-9,28-8.3,8.6-17.5,16.1-27.5,22.5-8.7,6.2-10.2,13.7-4.5,22.5,1.2-12,7.3-19.3,18.5-22-2.1,3-3.6,6.4-4.5,10,.2,8.3.2,16.7,0,25-1.5,5.9-3.1,11.5-5,17,4.5-2.3,8.5-5.3,12-9,.1,7.2-2.3,13.5-7,19-4.9,5.5-10.4,10.4-16.5,14.5,7.9-1.3,15.9-2.7,24-4,6.6-1.7,12.5-4.9,17.5-9.5-.4,7-3.6,12.5-9.5,16.5-3.1,1.9-6.4,3-10,3.5Z"/>
  <path class="cls-3" d="m0,31c6.5,14.7,16,27.4,28.5,38,2.4,6.5,4.7,12.8,7,19C12,76.3.2,57.3,0,31Z"/>
  <path class="cls-3" d="m199,30c1.2,26.2-9.9,45.2-33.5,57,1.9-5.9,3.9-11.9,6-18,12.6-10.6,21.8-23.6,27.5-39Z"/>
  <path class="cls-3" d="m3,68c7.1,8.7,15.4,16.1,25,22,2,5.5,4.7,10.7,8,15.5-17.5-6.6-28.5-19.1-33-37.5Z"/>
  <path class="cls-3" d="m197,67c-2.6,13.9-9.9,25.1-22,33.5-3.4,2.5-7.1,4.2-11,5,3.5-5.2,6.3-10.7,8.5-16.5,9.9-5.4,18.1-12.7,24.5-22Z"/>
  <path class="cls-3" d="m11,97c.4-1,1.1-1.2,2-.5,6.7,5.7,14,10.3,22,14,3.2,4.7,6.9,9,11,13-15.7-3.5-27.4-12.3-35-26.5Z"/>
  <path class="cls-3" d="m187,96c.7-.1,1.4,0,2,.5-7.5,14.6-19.1,23.6-35,27,4.2-4.5,8.2-9.1,12-14,8.1-3,15.1-7.5,21-13.5Z"/>
  <path class="cls-1" d="m49,137c2.2-1.3,4.5-1.3,7,0-.1.6-.5.9-1,1-1.8-1-3.8-1.3-6-1Z"/>
  <path class="cls-2" d="m159,136c-4.3.7-8.7,1.3-13,2-.8-.3-1.5-.8-2-1.5,5-.5,10-.7,15-.5Z"/>
  <path class="cls-4" d="m117,160c-.7,2-1.3,4-2,6,.3-2.6-.1-5.1-1-7.5,1.5-.6,2.5-.1,3,1.5Z"/>
</svg>